name ./resultDataOpenSim/trcMotMarkerGrf/sub09/grf-14-04.mot
datacolumns 19
datarows 20
range 0.47600000 0.55200000
endheader

                time	     ground_force_vx	     ground_force_vy	     ground_force_vz	     ground_force_px	     ground_force_py	     ground_force_pz	   l_ground_force_vx	   l_ground_force_vy	   l_ground_force_vz	   l_ground_force_px	   l_ground_force_py	   l_ground_force_pz	     ground_torque_x	     ground_torque_y	     ground_torque_z	   l_ground_torque_x	   l_ground_torque_y	   l_ground_torque_z	
          0.47600000	         17.04156712	        394.37836844	        -24.82051405	         -0.71174523	          0.00000000	          0.10286469	          0.00000000	          0.00000000	          0.00000000	          0.00000000	          0.00000000	          0.00000000	          0.00000000	          4.74814916	          0.00000000	          0.00000000	          0.00000000	          0.00000000	
          0.48000000	         18.38255121	        401.98179672	        -26.39093736	         -0.71097796	          0.00000000	          0.10318346	          0.00000000	          0.00000000	          0.00000000	          0.00000000	          0.00000000	          0.00000000	          0.00000000	          5.00887296	          0.00000000	          0.00000000	          0.00000000	          0.00000000	
          0.48400000	         20.74034049	        410.30353590	        -27.67136691	         -0.71030226	          0.00000000	          0.10351034	          0.00000000	          0.00000000	          0.00000000	          0.00000000	          0.00000000	          0.00000000	          0.00000000	          5.29540975	          0.00000000	          0.00000000	          0.00000000	          0.00000000	
          0.48800000	         24.28745295	        419.26655733	        -28.49545800	         -0.70971794	          0.00000000	          0.10384587	          0.00000000	          0.00000000	          0.00000000	          0.00000000	          0.00000000	          0.00000000	          0.00000000	          5.62877801	          0.00000000	          0.00000000	          0.00000000	          0.00000000	
          0.49200000	         28.85413621	        428.82223397	        -28.79023824	         -0.70917468	          0.00000000	          0.10417894	          0.00000000	          0.00000000	          0.00000000	          0.00000000	          0.00000000	          0.00000000	          0.00000000	          6.02303441	          0.00000000	          0.00000000	          0.00000000	          0.00000000	
          0.49600000	         33.99201788	        438.93905035	        -28.60702089	         -0.70859494	          0.00000000	          0.10450417	          0.00000000	          0.00000000	          0.00000000	          0.00000000	          0.00000000	          0.00000000	          0.00000000	          6.47901987	          0.00000000	          0.00000000	          0.00000000	          0.00000000	
          0.50000000	         39.11949731	        449.57965329	        -28.12465266	         -0.70789136	          0.00000000	          0.10482655	          0.00000000	          0.00000000	          0.00000000	          0.00000000	          0.00000000	          0.00000000	          0.00000000	          6.98054234	          0.00000000	          0.00000000	          0.00000000	          0.00000000	
          0.50400000	         43.70128396	        460.69413867	        -27.62350665	         -0.70694589	          0.00000000	          0.10516090	          0.00000000	          0.00000000	          0.00000000	          0.00000000	          0.00000000	          0.00000000	          0.00000000	          7.49419814	          0.00000000	          0.00000000	          0.00000000	          0.00000000	
          0.50800000	         47.40315256	        472.25291001	        -27.43407451	         -0.70569368	          0.00000000	          0.10552512	          0.00000000	          0.00000000	          0.00000000	          0.00000000	          0.00000000	          0.00000000	          0.00000000	          7.97315944	          0.00000000	          0.00000000	          0.00000000	          0.00000000	
          0.51200000	         50.15836695	        484.30005075	        -27.87718864	         -0.70416123	          0.00000000	          0.10591847	          0.00000000	          0.00000000	          0.00000000	          0.00000000	          0.00000000	          0.00000000	          0.00000000	          8.36435271	          0.00000000	          0.00000000	          0.00000000	          0.00000000	
          0.51600000	         52.14590040	        496.94169168	        -29.21423048	         -0.70247193	          0.00000000	          0.10631821	          0.00000000	          0.00000000	          0.00000000	          0.00000000	          0.00000000	          0.00000000	          0.00000000	          8.61773836	          0.00000000	          0.00000000	          0.00000000	          0.00000000	
          0.52000000	         53.73655925	        510.21781739	        -31.59420684	         -0.70078379	          0.00000000	          0.10671819	          0.00000000	          0.00000000	          0.00000000	          0.00000000	          0.00000000	          0.00000000	          0.00000000	          8.69607280	          0.00000000	          0.00000000	          0.00000000	          0.00000000	
          0.52400000	         55.40094079	        523.98751056	        -34.99583159	         -0.69914119	          0.00000000	          0.10715558	          0.00000000	          0.00000000	          0.00000000	          0.00000000	          0.00000000	          0.00000000	          0.00000000	          8.58347395	          0.00000000	          0.00000000	          0.00000000	          0.00000000	
          0.52800000	         57.56297274	        538.02587558	        -39.20891079	         -0.69747922	          0.00000000	          0.10767860	          0.00000000	          0.00000000	          0.00000000	          0.00000000	          0.00000000	          0.00000000	          0.00000000	          8.29105692	          0.00000000	          0.00000000	          0.00000000	          0.00000000	
          0.53200000	         60.48077146	        552.26665234	        -43.86575012	         -0.69579372	          0.00000000	          0.10826729	          0.00000000	          0.00000000	          0.00000000	          0.00000000	          0.00000000	          0.00000000	          0.00000000	          7.85799387	          0.00000000	          0.00000000	          0.00000000	          0.00000000	
          0.53600000	         64.20671075	        566.88512170	        -48.48532774	         -0.69423269	          0.00000000	          0.10881759	          0.00000000	          0.00000000	          0.00000000	          0.00000000	          0.00000000	          0.00000000	          0.00000000	          7.34702149	          0.00000000	          0.00000000	          0.00000000	          0.00000000	
          0.54000000	         68.57717640	        582.09695238	        -52.52012877	         -0.69296511	          0.00000000	          0.10921165	          0.00000000	          0.00000000	          0.00000000	          0.00000000	          0.00000000	          0.00000000	          0.00000000	          6.83478721	          0.00000000	          0.00000000	          0.00000000	          0.00000000	
          0.54400000	         73.22826887	        597.88301844	        -55.43461147	         -0.69198870	          0.00000000	          0.10939192	          0.00000000	          0.00000000	          0.00000000	          0.00000000	          0.00000000	          0.00000000	          0.00000000	          6.39893735	          0.00000000	          0.00000000	          0.00000000	          0.00000000	
          0.54800000	         77.70941660	        613.93130716	        -56.82991283	         -0.69111321	          0.00000000	          0.10937329	          0.00000000	          0.00000000	          0.00000000	          0.00000000	          0.00000000	          0.00000000	          0.00000000	          6.10471646	          0.00000000	          0.00000000	          0.00000000	          0.00000000	
          0.55200000	         81.67972310	        629.87153922	        -56.56123201	         -0.69013882	          0.00000000	          0.10920216	          0.00000000	          0.00000000	          0.00000000	          0.00000000	          0.00000000	          0.00000000	          0.00000000	          5.99377260	          0.00000000	          0.00000000	          0.00000000	          0.00000000	
